# MagicaVoxel @ Ephtracy

# group
o 

# material
mtllib Пуля игрок.mtl
usemtl palette

# normals
vn -1 0 0
vn 1 0 0
vn 0 0 1
vn 0 0 -1
vn 0 -1 0
vn 0 1 0

# texcoords
vt 0.970703 0.5
vt 0.974609 0.5
vt 0.978516 0.5
vt 0.982422 0.5
vt 0.986328 0.5

# verts
v -0.8 0.1 0.2
v -0.8 0.1 0.0999999
v -0.8 0.1 -5.96046e-08
v -0.8 0.1 -0.4
v -0.8 0.2 -0.4
v -0.8 0.2 -0.5
v -0.8 0.4 -0.4
v -0.8 0.4 -0.5
v -0.8 0.5 0.2
v -0.8 0.5 0.0999999
v -0.8 0.5 -5.96046e-08
v -0.8 0.5 -0.4
v -0.7 0 0.2
v -0.7 0 0.0999999
v -0.7 0 -5.96046e-08
v -0.7 0 -0.4
v -0.7 0.1 0.2
v -0.7 0.1 0.0999999
v -0.7 0.1 -5.96046e-08
v -0.7 0.1 -0.4
v -0.7 0.1 -0.5
v -0.7 0.1 -0.6
v -0.7 0.2 -0.4
v -0.7 0.2 -0.5
v -0.7 0.2 -0.6
v -0.7 0.2 -0.7
v -0.7 0.4 -0.4
v -0.7 0.4 -0.5
v -0.7 0.4 -0.6
v -0.7 0.4 -0.7
v -0.7 0.5 0.2
v -0.7 0.5 0.0999999
v -0.7 0.5 -5.96046e-08
v -0.7 0.5 -0.4
v -0.7 0.5 -0.5
v -0.7 0.5 -0.6
v -0.7 0.6 0.2
v -0.7 0.6 0.0999999
v -0.7 0.6 -5.96046e-08
v -0.7 0.6 -0.4
v -0.6 0 -0.4
v -0.6 0 -0.5
v -0.6 0.1 -0.4
v -0.6 0.1 -0.5
v -0.6 0.1 -0.6
v -0.6 0.1 -0.7
v -0.6 0.2 -0.6
v -0.6 0.2 -0.7
v -0.6 0.2 -0.8
v -0.6 0.4 -0.6
v -0.6 0.4 -0.7
v -0.6 0.4 -0.8
v -0.6 0.5 -0.4
v -0.6 0.5 -0.5
v -0.6 0.5 -0.6
v -0.6 0.5 -0.7
v -0.6 0.6 -0.4
v -0.6 0.6 -0.5
v -0.4 0.1 0.2
v -0.4 0.1 0.0999999
v -0.4 0.2 0.2
v -0.4 0.2 0.0999999
v -0.4 0.4 0.2
v -0.4 0.4 0.0999999
v -0.4 0.5 0.2
v -0.4 0.5 0.0999999
v -0.3 0.1 -5.96046e-08
v -0.3 0.1 -0.4
v -0.3 0.2 0.2
v -0.3 0.2 0.0999999
v -0.3 0.4 0.2
v -0.3 0.4 0.0999999
v -0.3 0.5 -5.96046e-08
v -0.3 0.5 -0.4
v -0.7 0.1 -5.96046e-08
v -0.7 0.1 -0.3
v -0.7 0.2 0.2
v -0.7 0.2 0.0999999
v -0.7 0.2 -0.3
v -0.7 0.2 -0.4
v -0.7 0.4 0.2
v -0.7 0.4 0.0999999
v -0.7 0.5 -5.96046e-08
v -0.7 0.5 -0.4
v -0.6 0.1 0.2
v -0.6 0.1 0.0999999
v -0.6 0.1 -0.3
v -0.6 0.1 -0.4
v -0.6 0.2 0.2
v -0.6 0.2 0.0999999
v -0.6 0.2 -0.3
v -0.6 0.2 -0.4
v -0.6 0.4 0.2
v -0.6 0.4 0.0999999
v -0.6 0.5 0.2
v -0.6 0.5 0.0999999
v -0.4 0 -0.4
v -0.4 0 -0.5
v -0.4 0.1 -0.4
v -0.4 0.1 -0.5
v -0.4 0.1 -0.6
v -0.4 0.1 -0.7
v -0.4 0.2 -0.6
v -0.4 0.2 -0.7
v -0.4 0.2 -0.8
v -0.4 0.4 -0.6
v -0.4 0.4 -0.7
v -0.4 0.4 -0.8
v -0.4 0.5 -0.4
v -0.4 0.5 -0.5
v -0.4 0.5 -0.6
v -0.4 0.5 -0.7
v -0.4 0.6 -0.4
v -0.4 0.6 -0.5
v -0.3 0 0.2
v -0.3 0 0.0999999
v -0.3 0 -5.96046e-08
v -0.3 0 -0.4
v -0.3 0.1 0.2
v -0.3 0.1 0.0999999
v -0.3 0.1 -5.96046e-08
v -0.3 0.1 -0.4
v -0.3 0.1 -0.5
v -0.3 0.1 -0.6
v -0.3 0.2 -0.4
v -0.3 0.2 -0.5
v -0.3 0.2 -0.6
v -0.3 0.2 -0.7
v -0.3 0.4 -0.4
v -0.3 0.4 -0.5
v -0.3 0.4 -0.6
v -0.3 0.4 -0.7
v -0.3 0.5 0.2
v -0.3 0.5 0.0999999
v -0.3 0.5 -5.96046e-08
v -0.3 0.5 -0.4
v -0.3 0.5 -0.5
v -0.3 0.5 -0.6
v -0.3 0.6 0.2
v -0.3 0.6 0.0999999
v -0.3 0.6 -5.96046e-08
v -0.3 0.6 -0.4
v -0.2 0.1 0.2
v -0.2 0.1 0.0999999
v -0.2 0.1 -5.96046e-08
v -0.2 0.1 -0.4
v -0.2 0.2 -0.4
v -0.2 0.2 -0.5
v -0.2 0.4 -0.4
v -0.2 0.4 -0.5
v -0.2 0.5 0.2
v -0.2 0.5 0.0999999
v -0.2 0.5 -5.96046e-08
v -0.2 0.5 -0.4
v -0.8 0.1 0.2
v -0.8 0.5 0.2
v -0.7 0 0.2
v -0.7 0.1 0.2
v -0.7 0.2 0.2
v -0.7 0.4 0.2
v -0.7 0.5 0.2
v -0.7 0.6 0.2
v -0.6 0.1 0.2
v -0.6 0.2 0.2
v -0.6 0.4 0.2
v -0.6 0.5 0.2
v -0.4 0.1 0.2
v -0.4 0.2 0.2
v -0.4 0.4 0.2
v -0.4 0.5 0.2
v -0.3 0 0.2
v -0.3 0.1 0.2
v -0.3 0.2 0.2
v -0.3 0.4 0.2
v -0.3 0.5 0.2
v -0.3 0.6 0.2
v -0.2 0.1 0.2
v -0.2 0.5 0.2
v -0.7 0.2 0.0999999
v -0.7 0.4 0.0999999
v -0.6 0.1 0.0999999
v -0.6 0.2 0.0999999
v -0.6 0.4 0.0999999
v -0.6 0.5 0.0999999
v -0.4 0.1 0.0999999
v -0.4 0.2 0.0999999
v -0.4 0.4 0.0999999
v -0.4 0.5 0.0999999
v -0.3 0.2 0.0999999
v -0.3 0.4 0.0999999
v -0.7 0.1 -0.3
v -0.7 0.2 -0.3
v -0.6 0.1 -0.3
v -0.6 0.2 -0.3
v -0.7 0.2 -0.4
v -0.7 0.5 -0.4
v -0.6 0.1 -0.4
v -0.6 0.2 -0.4
v -0.3 0.1 -0.4
v -0.3 0.5 -0.4
v -0.7 0.1 -5.96046e-08
v -0.7 0.5 -5.96046e-08
v -0.6 0.2 -5.96046e-08
v -0.6 0.4 -5.96046e-08
v -0.4 0.2 -5.96046e-08
v -0.4 0.4 -5.96046e-08
v -0.3 0.1 -5.96046e-08
v -0.3 0.5 -5.96046e-08
v -0.8 0.1 -0.4
v -0.8 0.2 -0.4
v -0.8 0.4 -0.4
v -0.8 0.5 -0.4
v -0.7 0 -0.4
v -0.7 0.1 -0.4
v -0.7 0.2 -0.4
v -0.7 0.4 -0.4
v -0.7 0.5 -0.4
v -0.7 0.6 -0.4
v -0.6 0 -0.4
v -0.6 0.1 -0.4
v -0.6 0.5 -0.4
v -0.6 0.6 -0.4
v -0.4 0 -0.4
v -0.4 0.1 -0.4
v -0.4 0.5 -0.4
v -0.4 0.6 -0.4
v -0.3 0 -0.4
v -0.3 0.1 -0.4
v -0.3 0.2 -0.4
v -0.3 0.4 -0.4
v -0.3 0.5 -0.4
v -0.3 0.6 -0.4
v -0.2 0.1 -0.4
v -0.2 0.2 -0.4
v -0.2 0.4 -0.4
v -0.2 0.5 -0.4
v -0.8 0.2 -0.5
v -0.8 0.4 -0.5
v -0.7 0.2 -0.5
v -0.7 0.4 -0.5
v -0.6 0 -0.5
v -0.6 0.1 -0.5
v -0.6 0.5 -0.5
v -0.6 0.6 -0.5
v -0.4 0 -0.5
v -0.4 0.1 -0.5
v -0.4 0.5 -0.5
v -0.4 0.6 -0.5
v -0.3 0.2 -0.5
v -0.3 0.4 -0.5
v -0.2 0.2 -0.5
v -0.2 0.4 -0.5
v -0.7 0.1 -0.6
v -0.7 0.2 -0.6
v -0.7 0.4 -0.6
v -0.7 0.5 -0.6
v -0.6 0.1 -0.6
v -0.6 0.2 -0.6
v -0.6 0.4 -0.6
v -0.6 0.5 -0.6
v -0.4 0.1 -0.6
v -0.4 0.2 -0.6
v -0.4 0.4 -0.6
v -0.4 0.5 -0.6
v -0.3 0.1 -0.6
v -0.3 0.2 -0.6
v -0.3 0.4 -0.6
v -0.3 0.5 -0.6
v -0.7 0.2 -0.7
v -0.7 0.4 -0.7
v -0.6 0.1 -0.7
v -0.6 0.2 -0.7
v -0.6 0.4 -0.7
v -0.6 0.5 -0.7
v -0.4 0.1 -0.7
v -0.4 0.2 -0.7
v -0.4 0.4 -0.7
v -0.4 0.5 -0.7
v -0.3 0.2 -0.7
v -0.3 0.4 -0.7
v -0.6 0.2 -0.8
v -0.6 0.4 -0.8
v -0.4 0.2 -0.8
v -0.4 0.4 -0.8
v -0.7 0 0.2
v -0.3 0 0.2
v -0.7 0 0.0999999
v -0.3 0 0.0999999
v -0.7 0 -5.96046e-08
v -0.3 0 -5.96046e-08
v -0.7 0 -0.4
v -0.6 0 -0.4
v -0.4 0 -0.4
v -0.3 0 -0.4
v -0.6 0 -0.5
v -0.4 0 -0.5
v -0.8 0.1 0.2
v -0.7 0.1 0.2
v -0.3 0.1 0.2
v -0.2 0.1 0.2
v -0.8 0.1 0.0999999
v -0.7 0.1 0.0999999
v -0.3 0.1 0.0999999
v -0.2 0.1 0.0999999
v -0.8 0.1 -5.96046e-08
v -0.7 0.1 -5.96046e-08
v -0.3 0.1 -5.96046e-08
v -0.2 0.1 -5.96046e-08
v -0.8 0.1 -0.4
v -0.7 0.1 -0.4
v -0.6 0.1 -0.4
v -0.4 0.1 -0.4
v -0.3 0.1 -0.4
v -0.2 0.1 -0.4
v -0.7 0.1 -0.5
v -0.6 0.1 -0.5
v -0.4 0.1 -0.5
v -0.3 0.1 -0.5
v -0.7 0.1 -0.6
v -0.6 0.1 -0.6
v -0.4 0.1 -0.6
v -0.3 0.1 -0.6
v -0.6 0.1 -0.7
v -0.4 0.1 -0.7
v -0.8 0.2 -0.4
v -0.7 0.2 -0.4
v -0.3 0.2 -0.4
v -0.2 0.2 -0.4
v -0.8 0.2 -0.5
v -0.7 0.2 -0.5
v -0.3 0.2 -0.5
v -0.2 0.2 -0.5
v -0.7 0.2 -0.6
v -0.6 0.2 -0.6
v -0.4 0.2 -0.6
v -0.3 0.2 -0.6
v -0.7 0.2 -0.7
v -0.6 0.2 -0.7
v -0.4 0.2 -0.7
v -0.3 0.2 -0.7
v -0.6 0.2 -0.8
v -0.4 0.2 -0.8
v -0.7 0.4 0.2
v -0.6 0.4 0.2
v -0.4 0.4 0.2
v -0.3 0.4 0.2
v -0.7 0.4 0.0999999
v -0.6 0.4 0.0999999
v -0.4 0.4 0.0999999
v -0.3 0.4 0.0999999
v -0.6 0.5 0.2
v -0.4 0.5 0.2
v -0.6 0.5 0.0999999
v -0.4 0.5 0.0999999
v -0.7 0.5 -5.96046e-08
v -0.3 0.5 -5.96046e-08
v -0.7 0.5 -0.4
v -0.3 0.5 -0.4
v -0.6 0.1 0.2
v -0.4 0.1 0.2
v -0.6 0.1 0.0999999
v -0.4 0.1 0.0999999
v -0.7 0.1 -5.96046e-08
v -0.3 0.1 -5.96046e-08
v -0.7 0.1 -0.3
v -0.6 0.1 -0.3
v -0.6 0.1 -0.4
v -0.3 0.1 -0.4
v -0.7 0.2 0.2
v -0.6 0.2 0.2
v -0.4 0.2 0.2
v -0.3 0.2 0.2
v -0.7 0.2 0.0999999
v -0.6 0.2 0.0999999
v -0.4 0.2 0.0999999
v -0.3 0.2 0.0999999
v -0.7 0.2 -0.3
v -0.6 0.2 -0.3
v -0.7 0.2 -0.4
v -0.6 0.2 -0.4
v -0.8 0.4 -0.4
v -0.7 0.4 -0.4
v -0.3 0.4 -0.4
v -0.2 0.4 -0.4
v -0.8 0.4 -0.5
v -0.7 0.4 -0.5
v -0.3 0.4 -0.5
v -0.2 0.4 -0.5
v -0.7 0.4 -0.6
v -0.6 0.4 -0.6
v -0.4 0.4 -0.6
v -0.3 0.4 -0.6
v -0.7 0.4 -0.7
v -0.6 0.4 -0.7
v -0.4 0.4 -0.7
v -0.3 0.4 -0.7
v -0.6 0.4 -0.8
v -0.4 0.4 -0.8
v -0.8 0.5 0.2
v -0.7 0.5 0.2
v -0.3 0.5 0.2
v -0.2 0.5 0.2
v -0.8 0.5 0.0999999
v -0.7 0.5 0.0999999
v -0.3 0.5 0.0999999
v -0.2 0.5 0.0999999
v -0.8 0.5 -5.96046e-08
v -0.7 0.5 -5.96046e-08
v -0.3 0.5 -5.96046e-08
v -0.2 0.5 -5.96046e-08
v -0.8 0.5 -0.4
v -0.7 0.5 -0.4
v -0.6 0.5 -0.4
v -0.4 0.5 -0.4
v -0.3 0.5 -0.4
v -0.2 0.5 -0.4
v -0.7 0.5 -0.5
v -0.6 0.5 -0.5
v -0.4 0.5 -0.5
v -0.3 0.5 -0.5
v -0.7 0.5 -0.6
v -0.6 0.5 -0.6
v -0.4 0.5 -0.6
v -0.3 0.5 -0.6
v -0.6 0.5 -0.7
v -0.4 0.5 -0.7
v -0.7 0.6 0.2
v -0.3 0.6 0.2
v -0.7 0.6 0.0999999
v -0.3 0.6 0.0999999
v -0.7 0.6 -5.96046e-08
v -0.3 0.6 -5.96046e-08
v -0.7 0.6 -0.4
v -0.6 0.6 -0.4
v -0.4 0.6 -0.4
v -0.3 0.6 -0.4
v -0.6 0.6 -0.5
v -0.4 0.6 -0.5

# faces
f 5/1/1 4/1/1 3/1/1
f 7/1/1 5/1/1 3/1/1
f 7/1/1 6/1/1 5/1/1
f 8/1/1 6/1/1 7/1/1
f 9/1/1 2/1/1 1/1/1
f 10/4/1 3/4/1 2/4/1
f 10/1/1 2/1/1 9/1/1
f 11/1/1 7/1/1 3/1/1
f 11/4/1 3/4/1 10/4/1
f 12/1/1 7/1/1 11/1/1
f 17/1/1 14/1/1 13/1/1
f 18/4/1 15/4/1 14/4/1
f 18/1/1 14/1/1 17/1/1
f 19/1/1 16/1/1 15/1/1
f 19/4/1 15/4/1 18/4/1
f 20/1/1 16/1/1 19/1/1
f 23/1/1 21/1/1 20/1/1
f 24/5/1 22/5/1 21/5/1
f 24/1/1 21/1/1 23/1/1
f 25/5/1 22/5/1 24/5/1
f 28/5/1 26/5/1 25/5/1
f 28/5/1 25/5/1 24/5/1
f 29/5/1 26/5/1 28/5/1
f 30/5/1 26/5/1 29/5/1
f 34/1/1 28/1/1 27/1/1
f 35/5/1 29/5/1 28/5/1
f 35/1/1 28/1/1 34/1/1
f 36/5/1 29/5/1 35/5/1
f 37/1/1 32/1/1 31/1/1
f 38/4/1 33/4/1 32/4/1
f 38/1/1 32/1/1 37/1/1
f 39/1/1 34/1/1 33/1/1
f 39/4/1 33/4/1 38/4/1
f 40/1/1 34/1/1 39/1/1
f 43/1/1 42/1/1 41/1/1
f 44/1/1 42/1/1 43/1/1
f 47/5/1 46/5/1 45/5/1
f 48/5/1 46/5/1 47/5/1
f 51/5/1 49/5/1 48/5/1
f 52/5/1 49/5/1 51/5/1
f 55/5/1 51/5/1 50/5/1
f 56/5/1 51/5/1 55/5/1
f 57/1/1 54/1/1 53/1/1
f 58/1/1 54/1/1 57/1/1
f 61/1/1 60/1/1 59/1/1
f 62/1/1 60/1/1 61/1/1
f 65/1/1 64/1/1 63/1/1
f 66/1/1 64/1/1 65/1/1
f 71/1/1 70/1/1 69/1/1
f 72/1/1 70/1/1 71/1/1
f 73/1/1 68/1/1 67/1/1
f 74/1/1 68/1/1 73/1/1
f 75/1/2 76/1/2 79/1/2
f 77/1/2 78/1/2 81/1/2
f 81/1/2 78/1/2 82/1/2
f 79/1/2 80/1/2 83/1/2
f 75/1/2 79/1/2 83/1/2
f 83/1/2 80/1/2 84/1/2
f 85/1/2 86/1/2 89/1/2
f 89/1/2 86/1/2 90/1/2
f 87/1/2 88/1/2 91/1/2
f 91/1/2 88/1/2 92/1/2
f 93/1/2 94/1/2 95/1/2
f 95/1/2 94/1/2 96/1/2
f 97/1/2 98/1/2 99/1/2
f 99/1/2 98/1/2 100/1/2
f 101/5/2 102/5/2 103/5/2
f 103/5/2 102/5/2 104/5/2
f 104/5/2 105/5/2 107/5/2
f 107/5/2 105/5/2 108/5/2
f 106/5/2 107/5/2 111/5/2
f 111/5/2 107/5/2 112/5/2
f 109/1/2 110/1/2 113/1/2
f 113/1/2 110/1/2 114/1/2
f 115/1/2 116/1/2 119/1/2
f 116/4/2 117/4/2 120/4/2
f 119/1/2 116/1/2 120/1/2
f 117/1/2 118/1/2 121/1/2
f 120/4/2 117/4/2 121/4/2
f 121/1/2 118/1/2 122/1/2
f 122/1/2 123/1/2 125/1/2
f 123/5/2 124/5/2 126/5/2
f 125/1/2 123/1/2 126/1/2
f 126/5/2 124/5/2 127/5/2
f 127/5/2 128/5/2 130/5/2
f 126/5/2 127/5/2 130/5/2
f 130/5/2 128/5/2 131/5/2
f 131/5/2 128/5/2 132/5/2
f 129/1/2 130/1/2 136/1/2
f 130/5/2 131/5/2 137/5/2
f 136/1/2 130/1/2 137/1/2
f 137/5/2 131/5/2 138/5/2
f 133/1/2 134/1/2 139/1/2
f 134/4/2 135/4/2 140/4/2
f 139/1/2 134/1/2 140/1/2
f 135/1/2 136/1/2 141/1/2
f 140/4/2 135/4/2 141/4/2
f 141/1/2 136/1/2 142/1/2
f 145/1/2 146/1/2 147/1/2
f 145/1/2 147/1/2 149/1/2
f 147/1/2 148/1/2 149/1/2
f 149/1/2 148/1/2 150/1/2
f 143/1/2 144/1/2 151/1/2
f 144/4/2 145/4/2 152/4/2
f 151/1/2 144/1/2 152/1/2
f 145/1/2 149/1/2 153/1/2
f 152/4/2 145/4/2 153/4/2
f 153/1/2 149/1/2 154/1/2
f 158/1/3 156/1/3 155/1/3
f 159/1/3 156/1/3 158/1/3
f 160/1/3 156/1/3 159/1/3
f 161/1/3 156/1/3 160/1/3
f 163/1/3 158/1/3 157/1/3
f 163/1/3 159/1/3 158/1/3
f 164/1/3 159/1/3 163/1/3
f 165/1/3 162/1/3 161/1/3
f 165/1/3 161/1/3 160/1/3
f 166/1/3 162/1/3 165/1/3
f 167/1/3 163/1/3 157/1/3
f 170/1/3 162/1/3 166/1/3
f 171/1/3 168/1/3 167/1/3
f 171/1/3 167/1/3 157/1/3
f 172/1/3 168/1/3 171/1/3
f 173/1/3 168/1/3 172/1/3
f 174/1/3 170/1/3 169/1/3
f 175/1/3 162/1/3 170/1/3
f 175/1/3 170/1/3 174/1/3
f 176/1/3 162/1/3 175/1/3
f 177/1/3 173/1/3 172/1/3
f 177/1/3 174/1/3 173/1/3
f 177/1/3 175/1/3 174/1/3
f 178/1/3 175/1/3 177/1/3
f 182/2/3 180/2/3 179/2/3
f 183/2/3 180/2/3 182/2/3
f 185/2/3 182/2/3 181/2/3
f 186/3/3 183/3/3 182/3/3
f 186/2/3 182/2/3 185/2/3
f 187/2/3 184/2/3 183/2/3
f 187/3/3 183/3/3 186/3/3
f 188/2/3 184/2/3 187/2/3
f 189/2/3 187/2/3 186/2/3
f 190/2/3 187/2/3 189/2/3
f 193/1/3 192/1/3 191/1/3
f 194/1/3 192/1/3 193/1/3
f 198/1/3 196/1/3 195/1/3
f 199/1/3 198/1/3 197/1/3
f 200/1/3 196/1/3 198/1/3
f 200/1/3 198/1/3 199/1/3
f 201/2/4 202/2/4 203/2/4
f 203/2/4 202/2/4 204/2/4
f 201/2/4 203/2/4 205/2/4
f 203/3/4 204/3/4 205/3/4
f 204/2/4 202/2/4 206/2/4
f 205/3/4 204/3/4 206/3/4
f 201/2/4 205/2/4 207/2/4
f 205/2/4 206/2/4 207/2/4
f 206/2/4 202/2/4 208/2/4
f 207/2/4 206/2/4 208/2/4
f 209/1/4 210/1/4 214/1/4
f 214/1/4 210/1/4 215/1/4
f 211/1/4 212/1/4 216/1/4
f 216/1/4 212/1/4 217/1/4
f 213/1/4 214/1/4 219/1/4
f 219/1/4 214/1/4 220/1/4
f 217/1/4 218/1/4 221/1/4
f 221/1/4 218/1/4 222/1/4
f 223/1/4 224/1/4 227/1/4
f 227/1/4 224/1/4 228/1/4
f 225/1/4 226/1/4 231/1/4
f 231/1/4 226/1/4 232/1/4
f 228/1/4 229/1/4 233/1/4
f 233/1/4 229/1/4 234/1/4
f 230/1/4 231/1/4 235/1/4
f 235/1/4 231/1/4 236/1/4
f 237/1/4 238/1/4 239/1/4
f 239/1/4 238/1/4 240/1/4
f 241/1/4 242/1/4 245/1/4
f 245/1/4 242/1/4 246/1/4
f 243/1/4 244/1/4 247/1/4
f 247/1/4 244/1/4 248/1/4
f 249/1/4 250/1/4 251/1/4
f 251/1/4 250/1/4 252/1/4
f 253/5/4 254/5/4 257/5/4
f 257/5/4 254/5/4 258/5/4
f 255/5/4 256/5/4 259/5/4
f 259/5/4 256/5/4 260/5/4
f 261/5/4 262/5/4 265/5/4
f 265/5/4 262/5/4 266/5/4
f 263/5/4 264/5/4 267/5/4
f 267/5/4 264/5/4 268/5/4
f 269/5/4 270/5/4 272/5/4
f 272/5/4 270/5/4 273/5/4
f 271/5/4 272/5/4 275/5/4
f 275/5/4 272/5/4 276/5/4
f 273/5/4 274/5/4 277/5/4
f 277/5/4 274/5/4 278/5/4
f 276/5/4 277/5/4 279/5/4
f 279/5/4 277/5/4 280/5/4
f 281/5/4 282/5/4 283/5/4
f 283/5/4 282/5/4 284/5/4
f 287/1/5 286/1/5 285/1/5
f 288/1/5 286/1/5 287/1/5
f 289/4/5 288/4/5 287/4/5
f 290/4/5 288/4/5 289/4/5
f 291/1/5 290/1/5 289/1/5
f 292/1/5 290/1/5 291/1/5
f 293/1/5 290/1/5 292/1/5
f 294/1/5 290/1/5 293/1/5
f 295/1/5 293/1/5 292/1/5
f 296/1/5 293/1/5 295/1/5
f 301/1/5 298/1/5 297/1/5
f 302/1/5 298/1/5 301/1/5
f 303/1/5 300/1/5 299/1/5
f 304/1/5 300/1/5 303/1/5
f 305/4/5 302/4/5 301/4/5
f 306/4/5 302/4/5 305/4/5
f 307/4/5 304/4/5 303/4/5
f 308/4/5 304/4/5 307/4/5
f 309/1/5 306/1/5 305/1/5
f 310/1/5 306/1/5 309/1/5
f 313/1/5 308/1/5 307/1/5
f 314/1/5 308/1/5 313/1/5
f 315/1/5 311/1/5 310/1/5
f 316/1/5 311/1/5 315/1/5
f 317/1/5 313/1/5 312/1/5
f 318/1/5 313/1/5 317/1/5
f 319/5/5 316/5/5 315/5/5
f 319/5/5 317/5/5 316/5/5
f 319/5/5 318/5/5 317/5/5
f 320/5/5 318/5/5 319/5/5
f 321/5/5 318/5/5 320/5/5
f 322/5/5 318/5/5 321/5/5
f 323/5/5 321/5/5 320/5/5
f 324/5/5 321/5/5 323/5/5
f 329/1/5 326/1/5 325/1/5
f 330/1/5 326/1/5 329/1/5
f 331/1/5 328/1/5 327/1/5
f 332/1/5 328/1/5 331/1/5
f 337/5/5 334/5/5 333/5/5
f 338/5/5 334/5/5 337/5/5
f 339/5/5 336/5/5 335/5/5
f 340/5/5 336/5/5 339/5/5
f 341/5/5 339/5/5 338/5/5
f 342/5/5 339/5/5 341/5/5
f 347/1/5 344/1/5 343/1/5
f 348/1/5 344/1/5 347/1/5
f 349/1/5 346/1/5 345/1/5
f 350/1/5 346/1/5 349/1/5
f 353/1/5 352/1/5 351/1/5
f 354/1/5 352/1/5 353/1/5
f 357/1/5 356/1/5 355/1/5
f 358/1/5 356/1/5 357/1/5
f 359/1/6 360/1/6 361/1/6
f 361/1/6 360/1/6 362/1/6
f 363/1/6 364/1/6 365/1/6
f 365/1/6 364/1/6 366/1/6
f 366/1/6 364/1/6 367/1/6
f 367/1/6 364/1/6 368/1/6
f 369/1/6 370/1/6 373/1/6
f 373/1/6 370/1/6 374/1/6
f 371/1/6 372/1/6 375/1/6
f 375/1/6 372/1/6 376/1/6
f 377/1/6 378/1/6 379/1/6
f 379/1/6 378/1/6 380/1/6
f 381/1/6 382/1/6 385/1/6
f 385/1/6 382/1/6 386/1/6
f 383/1/6 384/1/6 387/1/6
f 387/1/6 384/1/6 388/1/6
f 389/5/6 390/5/6 393/5/6
f 393/5/6 390/5/6 394/5/6
f 391/5/6 392/5/6 395/5/6
f 395/5/6 392/5/6 396/5/6
f 394/5/6 395/5/6 397/5/6
f 397/5/6 395/5/6 398/5/6
f 399/1/6 400/1/6 403/1/6
f 403/1/6 400/1/6 404/1/6
f 401/1/6 402/1/6 405/1/6
f 405/1/6 402/1/6 406/1/6
f 403/4/6 404/4/6 407/4/6
f 407/4/6 404/4/6 408/4/6
f 405/4/6 406/4/6 409/4/6
f 409/4/6 406/4/6 410/4/6
f 407/1/6 408/1/6 411/1/6
f 411/1/6 408/1/6 412/1/6
f 409/1/6 410/1/6 415/1/6
f 415/1/6 410/1/6 416/1/6
f 412/1/6 413/1/6 417/1/6
f 417/1/6 413/1/6 418/1/6
f 414/1/6 415/1/6 419/1/6
f 419/1/6 415/1/6 420/1/6
f 417/5/6 418/5/6 421/5/6
f 418/5/6 419/5/6 421/5/6
f 419/5/6 420/5/6 421/5/6
f 421/5/6 420/5/6 422/5/6
f 422/5/6 420/5/6 423/5/6
f 423/5/6 420/5/6 424/5/6
f 422/5/6 423/5/6 425/5/6
f 425/5/6 423/5/6 426/5/6
f 427/1/6 428/1/6 429/1/6
f 429/1/6 428/1/6 430/1/6
f 429/4/6 430/4/6 431/4/6
f 431/4/6 430/4/6 432/4/6
f 431/1/6 432/1/6 433/1/6
f 433/1/6 432/1/6 434/1/6
f 434/1/6 432/1/6 435/1/6
f 435/1/6 432/1/6 436/1/6
f 434/1/6 435/1/6 437/1/6
f 437/1/6 435/1/6 438/1/6
