# MagicaVoxel @ Ephtracy

# group
o 

# material
mtllib Табличка.mtl
usemtl palette

# normals
vn -1 0 0
vn 1 0 0
vn 0 0 1
vn 0 0 -1
vn 0 -1 0
vn 0 1 0

# texcoords
vt 0.970703 0.5
vt 0.974609 0.5
vt 0.978516 0.5
vt 0.982422 0.5
vt 0.990234 0.5

# verts
v -1.1 3.1 1.2
v -1.1 3.1 1.1
v -1.1 3.1 -1
v -1.1 3.1 -1.1
v -1.1 3.6 1.2
v -1.1 3.6 1.1
v -1.1 3.6 -1
v -1.1 3.6 -1.1
v -1.1 3.7 1.2
v -1.1 3.7 1.1
v -1.1 3.7 -1
v -1.1 3.7 -1.1
v -1.1 4 1.2
v -1.1 4 1.1
v -1.1 4 -1
v -1.1 4 -1.1
v -1 1.4 1.5
v -1 1.4 -0.9
v -1 1.4 -1.4
v -1 1.5 0.1
v -1 1.5 -0.9
v -1 1.5 -1.4
v -1 1.6 1
v -1 1.6 0.5
v -1 1.6 0.1
v -1 1.6 0
v -1 1.6 -0.9
v -1 1.7 1.5
v -1 1.7 1
v -1 1.7 0.6
v -1 1.7 0.5
v -1 1.7 0
v -1 1.7 -0.1
v -1 1.8 1.5
v -1 1.8 1
v -1 1.8 0.6
v -1 1.8 0.5
v -1 1.8 0
v -1 1.8 -0.1
v -1 1.8 -0.3
v -1 1.9 -0.1
v -1 1.9 -0.2
v -1 1.9 -0.3
v -1 1.9 -0.4
v -1 1.9 -1
v -1 1.9 -1.4
v -1 2 -0.2
v -1 2 -0.3
v -1 2 -0.4
v -1 2 -1
v -1 2 -1.4
v -1 2.1 -0.1
v -1 2.1 -0.3
v -1 2.1 -0.4
v -1 2.1 -1
v -1 2.2 1.1
v -1 2.2 0.6
v -1 2.2 -0.1
v -1 2.2 -0.3
v -1 2.3 1.5
v -1 2.3 1.1
v -1 2.3 0.6
v -1 2.3 -0.2
v -1 2.3 -0.3
v -1 2.4 1.5
v -1 2.4 1.1
v -1 2.4 0.6
v -1 2.4 -0.1
v -1 2.4 -0.2
v -1 2.4 -0.3
v -1 2.4 -0.4
v -1 2.4 -0.9
v -1 2.4 -1.4
v -1 2.5 -0.1
v -1 2.5 -0.3
v -1 2.5 -0.9
v -1 2.5 -1.4
v -1 2.6 1
v -1 2.6 0.6
v -1 2.6 0.1
v -1 2.6 -0.1
v -1 2.6 -0.9
v -1 2.7 1.5
v -1 2.7 1
v -1 2.7 0.1
v -1 2.8 1.5
v -1 2.8 1.3
v -1 2.8 1
v -1 2.8 -0.9
v -1 2.8 -1.2
v -1 2.9 1.5
v -1 2.9 1.3
v -1 2.9 1.2
v -1 2.9 1.1
v -1 2.9 1
v -1 2.9 -0.9
v -1 2.9 -1
v -1 2.9 -1.1
v -1 2.9 -1.2
v -1 2.9 -1.4
v -1 3.1 1.2
v -1 3.1 1.1
v -1 3.1 -1
v -1 3.1 -1.1
v -1 3.3 1.3
v -1 3.3 1.2
v -1 3.3 1.1
v -1 3.3 1
v -1 3.3 -0.9
v -1 3.3 -1
v -1 3.3 -1.1
v -1 3.3 -1.2
v -1 3.4 1.3
v -1 3.4 1.2
v -1 3.4 1.1
v -1 3.4 1
v -1 3.4 -0.9
v -1 3.4 -1
v -1 3.4 -1.1
v -1 3.4 -1.2
v -1 3.6 1.2
v -1 3.6 1.1
v -1 3.6 -1
v -1 3.6 -1.1
v -1 3.7 1.2
v -1 3.7 1.1
v -1 3.7 -1
v -1 3.7 -1.1
v -1 3.9 1.3
v -1 3.9 1.2
v -1 3.9 1.1
v -1 3.9 1
v -1 3.9 -0.9
v -1 3.9 -1
v -1 3.9 -1.1
v -1 3.9 -1.2
v -0.9 3.3 1.2
v -0.9 3.3 1.1
v -0.9 3.3 -1
v -0.9 3.3 -1.1
v -0.9 3.4 1.2
v -0.9 3.4 1.1
v -0.9 3.4 -1
v -0.9 3.4 -1.1
v -0.9 3.9 1.2
v -0.9 3.9 1.1
v -0.9 3.9 -1
v -0.9 3.9 -1.1
v -0.9 4 1.2
v -0.9 4 1.1
v -0.9 4 -1
v -0.9 4 -1.1
v -1 3.3 1.2
v -1 3.3 1.1
v -1 3.3 -1
v -1 3.3 -1.1
v -1 3.4 1.2
v -1 3.4 1.1
v -1 3.4 -1
v -1 3.4 -1.1
v -1 3.9 1.2
v -1 3.9 1.1
v -1 3.9 -1
v -1 3.9 -1.1
v -1 4 1.2
v -1 4 1.1
v -1 4 -1
v -1 4 -1.1
v -0.9 1.4 1.5
v -0.9 1.4 -0.9
v -0.9 1.4 -1.4
v -0.9 1.5 0.1
v -0.9 1.5 -0.9
v -0.9 1.5 -1.4
v -0.9 1.6 1
v -0.9 1.6 0.5
v -0.9 1.6 0.1
v -0.9 1.6 0
v -0.9 1.6 -0.9
v -0.9 1.7 1.5
v -0.9 1.7 1
v -0.9 1.7 0.6
v -0.9 1.7 0.5
v -0.9 1.7 0
v -0.9 1.7 -0.1
v -0.9 1.8 1.5
v -0.9 1.8 1
v -0.9 1.8 0.6
v -0.9 1.8 0.5
v -0.9 1.8 0
v -0.9 1.8 -0.1
v -0.9 1.8 -0.3
v -0.9 1.9 -0.1
v -0.9 1.9 -0.2
v -0.9 1.9 -0.3
v -0.9 1.9 -0.4
v -0.9 1.9 -1
v -0.9 1.9 -1.4
v -0.9 2 -0.2
v -0.9 2 -0.3
v -0.9 2 -0.4
v -0.9 2 -1
v -0.9 2 -1.4
v -0.9 2.1 -0.1
v -0.9 2.1 -0.3
v -0.9 2.1 -0.4
v -0.9 2.1 -1
v -0.9 2.2 1.1
v -0.9 2.2 0.6
v -0.9 2.2 -0.1
v -0.9 2.2 -0.3
v -0.9 2.3 1.5
v -0.9 2.3 1.1
v -0.9 2.3 0.6
v -0.9 2.3 -0.2
v -0.9 2.3 -0.3
v -0.9 2.4 1.5
v -0.9 2.4 1.1
v -0.9 2.4 0.6
v -0.9 2.4 -0.1
v -0.9 2.4 -0.2
v -0.9 2.4 -0.3
v -0.9 2.4 -0.4
v -0.9 2.4 -0.9
v -0.9 2.4 -1.4
v -0.9 2.5 -0.1
v -0.9 2.5 -0.3
v -0.9 2.5 -0.9
v -0.9 2.5 -1.4
v -0.9 2.6 1
v -0.9 2.6 0.6
v -0.9 2.6 0.1
v -0.9 2.6 -0.1
v -0.9 2.6 -0.9
v -0.9 2.7 1.5
v -0.9 2.7 1
v -0.9 2.7 0.1
v -0.9 2.8 1.5
v -0.9 2.8 1.3
v -0.9 2.8 1
v -0.9 2.8 -0.9
v -0.9 2.8 -1.2
v -0.9 2.9 1.5
v -0.9 2.9 1.3
v -0.9 2.9 1.2
v -0.9 2.9 1.1
v -0.9 2.9 1
v -0.9 2.9 -0.9
v -0.9 2.9 -1
v -0.9 2.9 -1.1
v -0.9 2.9 -1.2
v -0.9 2.9 -1.4
v -0.9 3.1 1.2
v -0.9 3.1 1.1
v -0.9 3.1 -1
v -0.9 3.1 -1.1
v -0.9 3.3 1.3
v -0.9 3.3 1.2
v -0.9 3.3 1.1
v -0.9 3.3 1
v -0.9 3.3 -0.9
v -0.9 3.3 -1
v -0.9 3.3 -1.1
v -0.9 3.3 -1.2
v -0.9 3.4 1.3
v -0.9 3.4 1.2
v -0.9 3.4 1.1
v -0.9 3.4 1
v -0.9 3.4 -0.9
v -0.9 3.4 -1
v -0.9 3.4 -1.1
v -0.9 3.4 -1.2
v -0.9 3.6 1.2
v -0.9 3.6 1.1
v -0.9 3.6 -1
v -0.9 3.6 -1.1
v -0.9 3.7 1.2
v -0.9 3.7 1.1
v -0.9 3.7 -1
v -0.9 3.7 -1.1
v -0.9 3.9 1.3
v -0.9 3.9 1.2
v -0.9 3.9 1.1
v -0.9 3.9 1
v -0.9 3.9 -0.9
v -0.9 3.9 -1
v -0.9 3.9 -1.1
v -0.9 3.9 -1.2
v -0.8 3.1 1.2
v -0.8 3.1 1.1
v -0.8 3.1 -1
v -0.8 3.1 -1.1
v -0.8 3.6 1.2
v -0.8 3.6 1.1
v -0.8 3.6 -1
v -0.8 3.6 -1.1
v -0.8 3.7 1.2
v -0.8 3.7 1.1
v -0.8 3.7 -1
v -0.8 3.7 -1.1
v -0.8 4 1.2
v -0.8 4 1.1
v -0.8 4 -1
v -0.8 4 -1.1
v -1 1.4 1.5
v -1 1.7 1.5
v -1 1.8 1.5
v -1 2.3 1.5
v -1 2.4 1.5
v -1 2.7 1.5
v -1 2.8 1.5
v -1 2.9 1.5
v -0.9 1.4 1.5
v -0.9 1.7 1.5
v -0.9 1.8 1.5
v -0.9 2.3 1.5
v -0.9 2.4 1.5
v -0.9 2.7 1.5
v -0.9 2.8 1.5
v -0.9 2.9 1.5
v -1 2.9 1.3
v -1 3.3 1.3
v -1 3.4 1.3
v -1 3.9 1.3
v -0.9 2.9 1.3
v -0.9 3.3 1.3
v -0.9 3.4 1.3
v -0.9 3.9 1.3
v -1.1 3.1 1.2
v -1.1 3.6 1.2
v -1.1 3.7 1.2
v -1.1 4 1.2
v -1 3.1 1.2
v -1 3.3 1.2
v -1 3.4 1.2
v -1 3.6 1.2
v -1 3.7 1.2
v -1 3.9 1.2
v -1 4 1.2
v -0.9 3.1 1.2
v -0.9 3.3 1.2
v -0.9 3.4 1.2
v -0.9 3.6 1.2
v -0.9 3.7 1.2
v -0.9 3.9 1.2
v -0.9 4 1.2
v -0.8 3.1 1.2
v -0.8 3.6 1.2
v -0.8 3.7 1.2
v -0.8 4 1.2
v -1 2.9 1.1
v -1 3.1 1.1
v -1 3.6 1.1
v -1 3.7 1.1
v -0.9 2.9 1.1
v -0.9 3.1 1.1
v -0.9 3.6 1.1
v -0.9 3.7 1.1
v -1 2.9 -0.9
v -1 3.3 -0.9
v -1 3.4 -0.9
v -1 3.9 -0.9
v -0.9 2.9 -0.9
v -0.9 3.3 -0.9
v -0.9 3.4 -0.9
v -0.9 3.9 -0.9
v -1.1 3.1 -1
v -1.1 3.6 -1
v -1.1 3.7 -1
v -1.1 4 -1
v -1 3.1 -1
v -1 3.3 -1
v -1 3.4 -1
v -1 3.6 -1
v -1 3.7 -1
v -1 3.9 -1
v -1 4 -1
v -0.9 3.1 -1
v -0.9 3.3 -1
v -0.9 3.4 -1
v -0.9 3.6 -1
v -0.9 3.7 -1
v -0.9 3.9 -1
v -0.9 4 -1
v -0.8 3.1 -1
v -0.8 3.6 -1
v -0.8 3.7 -1
v -0.8 4 -1
v -1 2.9 -1.1
v -1 3.1 -1.1
v -1 3.6 -1.1
v -1 3.7 -1.1
v -0.9 2.9 -1.1
v -0.9 3.1 -1.1
v -0.9 3.6 -1.1
v -0.9 3.7 -1.1
v -1 2.9 1.2
v -1 3.1 1.2
v -1 3.6 1.2
v -1 3.7 1.2
v -0.9 2.9 1.2
v -0.9 3.1 1.2
v -0.9 3.6 1.2
v -0.9 3.7 1.2
v -1.1 3.1 1.1
v -1.1 3.6 1.1
v -1.1 3.7 1.1
v -1.1 4 1.1
v -1 3.1 1.1
v -1 3.3 1.1
v -1 3.4 1.1
v -1 3.6 1.1
v -1 3.7 1.1
v -1 3.9 1.1
v -1 4 1.1
v -0.9 3.1 1.1
v -0.9 3.3 1.1
v -0.9 3.4 1.1
v -0.9 3.6 1.1
v -0.9 3.7 1.1
v -0.9 3.9 1.1
v -0.9 4 1.1
v -0.8 3.1 1.1
v -0.8 3.6 1.1
v -0.8 3.7 1.1
v -0.8 4 1.1
v -1 2.9 1
v -1 3.3 1
v -1 3.4 1
v -1 3.9 1
v -0.9 2.9 1
v -0.9 3.3 1
v -0.9 3.4 1
v -0.9 3.9 1
v -1 2.9 -1
v -1 3.1 -1
v -1 3.6 -1
v -1 3.7 -1
v -0.9 2.9 -1
v -0.9 3.1 -1
v -0.9 3.6 -1
v -0.9 3.7 -1
v -1.1 3.1 -1.1
v -1.1 3.6 -1.1
v -1.1 3.7 -1.1
v -1.1 4 -1.1
v -1 3.1 -1.1
v -1 3.3 -1.1
v -1 3.4 -1.1
v -1 3.6 -1.1
v -1 3.7 -1.1
v -1 3.9 -1.1
v -1 4 -1.1
v -0.9 3.1 -1.1
v -0.9 3.3 -1.1
v -0.9 3.4 -1.1
v -0.9 3.6 -1.1
v -0.9 3.7 -1.1
v -0.9 3.9 -1.1
v -0.9 4 -1.1
v -0.8 3.1 -1.1
v -0.8 3.6 -1.1
v -0.8 3.7 -1.1
v -0.8 4 -1.1
v -1 2.9 -1.2
v -1 3.3 -1.2
v -1 3.4 -1.2
v -1 3.9 -1.2
v -0.9 2.9 -1.2
v -0.9 3.3 -1.2
v -0.9 3.4 -1.2
v -0.9 3.9 -1.2
v -1 1.4 -1.4
v -1 1.5 -1.4
v -1 1.9 -1.4
v -1 2 -1.4
v -1 2.4 -1.4
v -1 2.5 -1.4
v -1 2.9 -1.4
v -0.9 1.4 -1.4
v -0.9 1.5 -1.4
v -0.9 1.9 -1.4
v -0.9 2 -1.4
v -0.9 2.4 -1.4
v -0.9 2.5 -1.4
v -0.9 2.9 -1.4
v -1 1.4 1.5
v -0.9 1.4 1.5
v -1 1.4 -0.9
v -0.9 1.4 -0.9
v -1 1.4 -1.4
v -0.9 1.4 -1.4
v -1.1 3.1 1.2
v -1 3.1 1.2
v -0.9 3.1 1.2
v -0.8 3.1 1.2
v -1.1 3.1 1.1
v -1 3.1 1.1
v -0.9 3.1 1.1
v -0.8 3.1 1.1
v -1.1 3.1 -1
v -1 3.1 -1
v -0.9 3.1 -1
v -0.8 3.1 -1
v -1.1 3.1 -1.1
v -1 3.1 -1.1
v -0.9 3.1 -1.1
v -0.8 3.1 -1.1
v -1 3.4 1.3
v -0.9 3.4 1.3
v -1 3.4 1.2
v -0.9 3.4 1.2
v -1 3.4 1.1
v -0.9 3.4 1.1
v -1 3.4 1
v -0.9 3.4 1
v -1 3.4 -0.9
v -0.9 3.4 -0.9
v -1 3.4 -1
v -0.9 3.4 -1
v -1 3.4 -1.1
v -0.9 3.4 -1.1
v -1 3.4 -1.2
v -0.9 3.4 -1.2
v -1.1 3.7 1.2
v -1 3.7 1.2
v -0.9 3.7 1.2
v -0.8 3.7 1.2
v -1.1 3.7 1.1
v -1 3.7 1.1
v -0.9 3.7 1.1
v -0.8 3.7 1.1
v -1.1 3.7 -1
v -1 3.7 -1
v -0.9 3.7 -1
v -0.8 3.7 -1
v -1.1 3.7 -1.1
v -1 3.7 -1.1
v -0.9 3.7 -1.1
v -0.8 3.7 -1.1
v -1 2.9 1.5
v -0.9 2.9 1.5
v -1 2.9 1.3
v -0.9 2.9 1.3
v -1 2.9 1.2
v -0.9 2.9 1.2
v -1 2.9 1.1
v -0.9 2.9 1.1
v -1 2.9 1
v -0.9 2.9 1
v -1 2.9 -0.9
v -0.9 2.9 -0.9
v -1 2.9 -1
v -0.9 2.9 -1
v -1 2.9 -1.1
v -0.9 2.9 -1.1
v -1 2.9 -1.2
v -0.9 2.9 -1.2
v -1 2.9 -1.4
v -0.9 2.9 -1.4
v -1 3.3 1.3
v -0.9 3.3 1.3
v -1 3.3 1.2
v -0.9 3.3 1.2
v -1 3.3 1.1
v -0.9 3.3 1.1
v -1 3.3 1
v -0.9 3.3 1
v -1 3.3 -0.9
v -0.9 3.3 -0.9
v -1 3.3 -1
v -0.9 3.3 -1
v -1 3.3 -1.1
v -0.9 3.3 -1.1
v -1 3.3 -1.2
v -0.9 3.3 -1.2
v -1.1 3.6 1.2
v -1 3.6 1.2
v -0.9 3.6 1.2
v -0.8 3.6 1.2
v -1.1 3.6 1.1
v -1 3.6 1.1
v -0.9 3.6 1.1
v -0.8 3.6 1.1
v -1.1 3.6 -1
v -1 3.6 -1
v -0.9 3.6 -1
v -0.8 3.6 -1
v -1.1 3.6 -1.1
v -1 3.6 -1.1
v -0.9 3.6 -1.1
v -0.8 3.6 -1.1
v -1 3.9 1.3
v -0.9 3.9 1.3
v -1 3.9 1.2
v -0.9 3.9 1.2
v -1 3.9 1.1
v -0.9 3.9 1.1
v -1 3.9 1
v -0.9 3.9 1
v -1 3.9 -0.9
v -0.9 3.9 -0.9
v -1 3.9 -1
v -0.9 3.9 -1
v -1 3.9 -1.1
v -0.9 3.9 -1.1
v -1 3.9 -1.2
v -0.9 3.9 -1.2
v -1.1 4 1.2
v -1 4 1.2
v -0.9 4 1.2
v -0.8 4 1.2
v -1.1 4 1.1
v -1 4 1.1
v -0.9 4 1.1
v -0.8 4 1.1
v -1.1 4 -1
v -1 4 -1
v -0.9 4 -1
v -0.8 4 -1
v -1.1 4 -1.1
v -1 4 -1.1
v -0.9 4 -1.1
v -0.8 4 -1.1

# faces
f 5/2/1 2/2/1 1/2/1
f 6/2/1 2/2/1 5/2/1
f 7/2/1 4/2/1 3/2/1
f 8/2/1 4/2/1 7/2/1
f 13/2/1 10/2/1 9/2/1
f 14/2/1 10/2/1 13/2/1
f 15/2/1 12/2/1 11/2/1
f 16/2/1 12/2/1 15/2/1
f 20/4/1 18/4/1 17/4/1
f 21/1/1 19/1/1 18/1/1
f 21/4/1 18/4/1 20/4/1
f 22/1/1 19/1/1 21/1/1
f 23/4/1 20/4/1 17/4/1
f 24/4/1 20/4/1 23/4/1
f 25/1/1 21/1/1 20/1/1
f 25/4/1 20/4/1 24/4/1
f 26/1/1 21/1/1 25/1/1
f 27/4/1 22/4/1 21/4/1
f 27/1/1 21/1/1 26/1/1
f 28/4/1 23/4/1 17/4/1
f 29/1/1 24/1/1 23/1/1
f 29/4/1 23/4/1 28/4/1
f 30/1/1 24/1/1 29/1/1
f 31/5/1 26/5/1 25/5/1
f 31/1/1 24/1/1 30/1/1
f 31/5/1 25/5/1 24/5/1
f 32/4/1 27/4/1 26/4/1
f 32/5/1 26/5/1 31/5/1
f 33/4/1 27/4/1 32/4/1
f 34/1/1 29/1/1 28/1/1
f 35/4/1 30/4/1 29/4/1
f 35/1/1 29/1/1 34/1/1
f 36/5/1 31/5/1 30/5/1
f 36/4/1 30/4/1 35/4/1
f 37/3/1 32/3/1 31/3/1
f 37/5/1 31/5/1 36/5/1
f 38/5/1 33/5/1 32/5/1
f 38/3/1 32/3/1 37/3/1
f 39/4/1 27/4/1 33/4/1
f 39/5/1 33/5/1 38/5/1
f 40/4/1 27/4/1 39/4/1
f 41/3/1 38/3/1 37/3/1
f 41/3/1 37/3/1 36/3/1
f 41/5/1 40/5/1 39/5/1
f 41/3/1 39/3/1 38/3/1
f 42/5/1 40/5/1 41/5/1
f 43/4/1 27/4/1 40/4/1
f 43/5/1 40/5/1 42/5/1
f 44/4/1 27/4/1 43/4/1
f 45/4/1 22/4/1 27/4/1
f 45/4/1 27/4/1 44/4/1
f 46/4/1 22/4/1 45/4/1
f 47/5/1 44/5/1 43/5/1
f 47/4/1 42/4/1 41/4/1
f 47/5/1 43/5/1 42/5/1
f 48/5/1 44/5/1 47/5/1
f 49/4/1 45/4/1 44/4/1
f 49/5/1 44/5/1 48/5/1
f 50/1/1 46/1/1 45/1/1
f 50/4/1 45/4/1 49/4/1
f 51/1/1 46/1/1 50/1/1
f 52/3/1 41/3/1 36/3/1
f 52/4/1 48/4/1 47/4/1
f 52/4/1 47/4/1 41/4/1
f 53/5/1 49/5/1 48/5/1
f 53/4/1 48/4/1 52/4/1
f 54/1/1 50/1/1 49/1/1
f 54/5/1 49/5/1 53/5/1
f 55/4/1 51/4/1 50/4/1
f 55/1/1 50/1/1 54/1/1
f 56/4/1 35/4/1 34/4/1
f 56/4/1 36/4/1 35/4/1
f 57/3/1 52/3/1 36/3/1
f 57/4/1 36/4/1 56/4/1
f 58/1/1 53/1/1 52/1/1
f 58/3/1 52/3/1 57/3/1
f 59/5/1 54/5/1 53/5/1
f 59/1/1 53/1/1 58/1/1
f 60/4/1 56/4/1 34/4/1
f 61/1/1 57/1/1 56/1/1
f 61/4/1 56/4/1 60/4/1
f 62/3/1 58/3/1 57/3/1
f 62/1/1 57/1/1 61/1/1
f 63/4/1 59/4/1 58/4/1
f 64/5/1 54/5/1 59/5/1
f 64/4/1 59/4/1 63/4/1
f 65/1/1 61/1/1 60/1/1
f 66/4/1 62/4/1 61/4/1
f 66/1/1 61/1/1 65/1/1
f 67/3/1 58/3/1 62/3/1
f 67/4/1 62/4/1 66/4/1
f 68/4/1 63/4/1 58/4/1
f 68/3/1 58/3/1 67/3/1
f 69/5/1 64/5/1 63/5/1
f 69/4/1 63/4/1 68/4/1
f 70/5/1 54/5/1 64/5/1
f 70/5/1 64/5/1 69/5/1
f 71/4/1 55/4/1 54/4/1
f 71/5/1 54/5/1 70/5/1
f 72/4/1 55/4/1 71/4/1
f 73/4/1 51/4/1 55/4/1
f 73/4/1 55/4/1 72/4/1
f 74/5/1 70/5/1 69/5/1
f 74/5/1 69/5/1 68/5/1
f 74/5/1 68/5/1 67/5/1
f 75/4/1 72/4/1 71/4/1
f 75/5/1 70/5/1 74/5/1
f 75/4/1 71/4/1 70/4/1
f 76/1/1 73/1/1 72/1/1
f 76/4/1 72/4/1 75/4/1
f 77/1/1 73/1/1 76/1/1
f 78/4/1 67/4/1 66/4/1
f 78/4/1 66/4/1 65/4/1
f 79/5/1 74/5/1 67/5/1
f 79/4/1 67/4/1 78/4/1
f 80/5/1 74/5/1 79/5/1
f 81/1/1 75/1/1 74/1/1
f 81/5/1 74/5/1 80/5/1
f 81/1/1 76/1/1 75/1/1
f 82/4/1 77/4/1 76/4/1
f 82/1/1 76/1/1 81/1/1
f 83/4/1 78/4/1 65/4/1
f 84/1/1 80/1/1 79/1/1
f 84/4/1 78/4/1 83/4/1
f 84/1/1 79/1/1 78/1/1
f 85/4/1 81/4/1 80/4/1
f 85/1/1 80/1/1 84/1/1
f 85/4/1 82/4/1 81/4/1
f 86/1/1 84/1/1 83/1/1
f 87/1/1 84/1/1 86/1/1
f 88/4/1 85/4/1 84/4/1
f 88/1/1 84/1/1 87/1/1
f 89/4/1 77/4/1 82/4/1
f 89/4/1 85/4/1 88/4/1
f 89/4/1 82/4/1 85/4/1
f 90/4/1 77/4/1 89/4/1
f 91/4/1 87/4/1 86/4/1
f 92/2/1 88/2/1 87/2/1
f 92/4/1 87/4/1 91/4/1
f 93/2/1 88/2/1 92/2/1
f 94/2/1 88/2/1 93/2/1
f 95/4/1 89/4/1 88/4/1
f 95/2/1 88/2/1 94/2/1
f 96/2/1 90/2/1 89/2/1
f 96/4/1 89/4/1 95/4/1
f 97/2/1 90/2/1 96/2/1
f 98/2/1 90/2/1 97/2/1
f 99/4/1 77/4/1 90/4/1
f 99/2/1 90/2/1 98/2/1
f 100/4/1 77/4/1 99/4/1
f 101/2/1 93/2/1 92/2/1
f 102/2/1 95/2/1 94/2/1
f 103/2/1 97/2/1 96/2/1
f 104/2/1 99/2/1 98/2/1
f 105/2/1 101/2/1 92/2/1
f 106/2/1 101/2/1 105/2/1
f 107/2/1 95/2/1 102/2/1
f 108/2/1 95/2/1 107/2/1
f 109/2/1 103/2/1 96/2/1
f 110/2/1 103/2/1 109/2/1
f 111/2/1 99/2/1 104/2/1
f 112/2/1 99/2/1 111/2/1
f 121/2/1 114/2/1 113/2/1
f 122/2/1 116/2/1 115/2/1
f 123/2/1 118/2/1 117/2/1
f 124/2/1 120/2/1 119/2/1
f 125/2/1 121/2/1 113/2/1
f 126/2/1 116/2/1 122/2/1
f 127/2/1 123/2/1 117/2/1
f 128/2/1 120/2/1 124/2/1
f 129/2/1 125/2/1 113/2/1
f 130/2/1 125/2/1 129/2/1
f 131/2/1 116/2/1 126/2/1
f 132/2/1 116/2/1 131/2/1
f 133/2/1 127/2/1 117/2/1
f 134/2/1 127/2/1 133/2/1
f 135/2/1 120/2/1 128/2/1
f 136/2/1 120/2/1 135/2/1
f 141/2/1 138/2/1 137/2/1
f 142/2/1 138/2/1 141/2/1
f 143/2/1 140/2/1 139/2/1
f 144/2/1 140/2/1 143/2/1
f 149/2/1 146/2/1 145/2/1
f 150/2/1 146/2/1 149/2/1
f 151/2/1 148/2/1 147/2/1
f 152/2/1 148/2/1 151/2/1
f 153/2/2 154/2/2 157/2/2
f 157/2/2 154/2/2 158/2/2
f 155/2/2 156/2/2 159/2/2
f 159/2/2 156/2/2 160/2/2
f 161/2/2 162/2/2 165/2/2
f 165/2/2 162/2/2 166/2/2
f 163/2/2 164/2/2 167/2/2
f 167/2/2 164/2/2 168/2/2
f 169/4/2 170/4/2 172/4/2
f 170/1/2 171/1/2 173/1/2
f 172/4/2 170/4/2 173/4/2
f 173/1/2 171/1/2 174/1/2
f 169/4/2 172/4/2 175/4/2
f 175/4/2 172/4/2 176/4/2
f 172/1/2 173/1/2 177/1/2
f 176/4/2 172/4/2 177/4/2
f 177/1/2 173/1/2 178/1/2
f 173/4/2 174/4/2 179/4/2
f 178/1/2 173/1/2 179/1/2
f 169/4/2 175/4/2 180/4/2
f 175/1/2 176/1/2 181/1/2
f 180/4/2 175/4/2 181/4/2
f 181/1/2 176/1/2 182/1/2
f 177/5/2 178/5/2 183/5/2
f 182/1/2 176/1/2 183/1/2
f 176/5/2 177/5/2 183/5/2
f 178/4/2 179/4/2 184/4/2
f 183/5/2 178/5/2 184/5/2
f 184/4/2 179/4/2 185/4/2
f 180/1/2 181/1/2 186/1/2
f 181/4/2 182/4/2 187/4/2
f 186/1/2 181/1/2 187/1/2
f 182/5/2 183/5/2 188/5/2
f 187/4/2 182/4/2 188/4/2
f 183/3/2 184/3/2 189/3/2
f 188/5/2 183/5/2 189/5/2
f 184/5/2 185/5/2 190/5/2
f 189/3/2 184/3/2 190/3/2
f 185/4/2 179/4/2 191/4/2
f 190/5/2 185/5/2 191/5/2
f 191/4/2 179/4/2 192/4/2
f 189/3/2 190/3/2 193/3/2
f 188/3/2 189/3/2 193/3/2
f 191/5/2 192/5/2 193/5/2
f 190/3/2 191/3/2 193/3/2
f 193/5/2 192/5/2 194/5/2
f 192/4/2 179/4/2 195/4/2
f 194/5/2 192/5/2 195/5/2
f 195/4/2 179/4/2 196/4/2
f 179/4/2 174/4/2 197/4/2
f 196/4/2 179/4/2 197/4/2
f 197/4/2 174/4/2 198/4/2
f 195/5/2 196/5/2 199/5/2
f 193/4/2 194/4/2 199/4/2
f 194/5/2 195/5/2 199/5/2
f 199/5/2 196/5/2 200/5/2
f 196/4/2 197/4/2 201/4/2
f 200/5/2 196/5/2 201/5/2
f 197/1/2 198/1/2 202/1/2
f 201/4/2 197/4/2 202/4/2
f 202/1/2 198/1/2 203/1/2
f 188/3/2 193/3/2 204/3/2
f 199/4/2 200/4/2 204/4/2
f 193/4/2 199/4/2 204/4/2
f 200/5/2 201/5/2 205/5/2
f 204/4/2 200/4/2 205/4/2
f 201/1/2 202/1/2 206/1/2
f 205/5/2 201/5/2 206/5/2
f 202/4/2 203/4/2 207/4/2
f 206/1/2 202/1/2 207/1/2
f 186/4/2 187/4/2 208/4/2
f 187/4/2 188/4/2 208/4/2
f 188/3/2 204/3/2 209/3/2
f 208/4/2 188/4/2 209/4/2
f 204/1/2 205/1/2 210/1/2
f 209/3/2 204/3/2 210/3/2
f 205/5/2 206/5/2 211/5/2
f 210/1/2 205/1/2 211/1/2
f 186/4/2 208/4/2 212/4/2
f 208/1/2 209/1/2 213/1/2
f 212/4/2 208/4/2 213/4/2
f 209/3/2 210/3/2 214/3/2
f 213/1/2 209/1/2 214/1/2
f 210/4/2 211/4/2 215/4/2
f 211/5/2 206/5/2 216/5/2
f 215/4/2 211/4/2 216/4/2
f 212/1/2 213/1/2 217/1/2
f 213/4/2 214/4/2 218/4/2
f 217/1/2 213/1/2 218/1/2
f 214/3/2 210/3/2 219/3/2
f 218/4/2 214/4/2 219/4/2
f 210/4/2 215/4/2 220/4/2
f 219/3/2 210/3/2 220/3/2
f 215/5/2 216/5/2 221/5/2
f 220/4/2 215/4/2 221/4/2
f 216/5/2 206/5/2 222/5/2
f 221/5/2 216/5/2 222/5/2
f 206/4/2 207/4/2 223/4/2
f 222/5/2 206/5/2 223/5/2
f 223/4/2 207/4/2 224/4/2
f 207/4/2 203/4/2 225/4/2
f 224/4/2 207/4/2 225/4/2
f 221/5/2 222/5/2 226/5/2
f 220/5/2 221/5/2 226/5/2
f 219/5/2 220/5/2 226/5/2
f 223/4/2 224/4/2 227/4/2
f 226/5/2 222/5/2 227/5/2
f 222/4/2 223/4/2 227/4/2
f 224/1/2 225/1/2 228/1/2
f 227/4/2 224/4/2 228/4/2
f 228/1/2 225/1/2 229/1/2
f 218/4/2 219/4/2 230/4/2
f 217/4/2 218/4/2 230/4/2
f 219/5/2 226/5/2 231/5/2
f 230/4/2 219/4/2 231/4/2
f 231/5/2 226/5/2 232/5/2
f 226/1/2 227/1/2 233/1/2
f 232/5/2 226/5/2 233/5/2
f 227/1/2 228/1/2 233/1/2
f 228/4/2 229/4/2 234/4/2
f 233/1/2 228/1/2 234/1/2
f 217/4/2 230/4/2 235/4/2
f 231/1/2 232/1/2 236/1/2
f 235/4/2 230/4/2 236/4/2
f 230/1/2 231/1/2 236/1/2
f 232/4/2 233/4/2 237/4/2
f 236/1/2 232/1/2 237/1/2
f 233/4/2 234/4/2 237/4/2
f 235/1/2 236/1/2 238/1/2
f 238/1/2 236/1/2 239/1/2
f 236/4/2 237/4/2 240/4/2
f 239/1/2 236/1/2 240/1/2
f 234/4/2 229/4/2 241/4/2
f 240/4/2 237/4/2 241/4/2
f 237/4/2 234/4/2 241/4/2
f 241/4/2 229/4/2 242/4/2
f 238/4/2 239/4/2 243/4/2
f 239/2/2 240/2/2 244/2/2
f 243/4/2 239/4/2 244/4/2
f 244/2/2 240/2/2 245/2/2
f 245/2/2 240/2/2 246/2/2
f 240/4/2 241/4/2 247/4/2
f 246/2/2 240/2/2 247/2/2
f 241/2/2 242/2/2 248/2/2
f 247/4/2 241/4/2 248/4/2
f 248/2/2 242/2/2 249/2/2
f 249/2/2 242/2/2 250/2/2
f 242/4/2 229/4/2 251/4/2
f 250/2/2 242/2/2 251/2/2
f 251/4/2 229/4/2 252/4/2
f 244/2/2 245/2/2 253/2/2
f 246/2/2 247/2/2 254/2/2
f 248/2/2 249/2/2 255/2/2
f 250/2/2 251/2/2 256/2/2
f 244/2/2 253/2/2 257/2/2
f 257/2/2 253/2/2 258/2/2
f 254/2/2 247/2/2 259/2/2
f 259/2/2 247/2/2 260/2/2
f 248/2/2 255/2/2 261/2/2
f 261/2/2 255/2/2 262/2/2
f 256/2/2 251/2/2 263/2/2
f 263/2/2 251/2/2 264/2/2
f 265/2/2 266/2/2 273/2/2
f 267/2/2 268/2/2 274/2/2
f 269/2/2 270/2/2 275/2/2
f 271/2/2 272/2/2 276/2/2
f 265/2/2 273/2/2 277/2/2
f 274/2/2 268/2/2 278/2/2
f 269/2/2 275/2/2 279/2/2
f 276/2/2 272/2/2 280/2/2
f 265/2/2 277/2/2 281/2/2
f 281/2/2 277/2/2 282/2/2
f 278/2/2 268/2/2 283/2/2
f 283/2/2 268/2/2 284/2/2
f 269/2/2 279/2/2 285/2/2
f 285/2/2 279/2/2 286/2/2
f 280/2/2 272/2/2 287/2/2
f 287/2/2 272/2/2 288/2/2
f 289/2/2 290/2/2 293/2/2
f 293/2/2 290/2/2 294/2/2
f 291/2/2 292/2/2 295/2/2
f 295/2/2 292/2/2 296/2/2
f 297/2/2 298/2/2 301/2/2
f 301/2/2 298/2/2 302/2/2
f 299/2/2 300/2/2 303/2/2
f 303/2/2 300/2/2 304/2/2
f 313/4/3 306/4/3 305/4/3
f 314/1/3 307/1/3 306/1/3
f 314/4/3 306/4/3 313/4/3
f 315/4/3 308/4/3 307/4/3
f 315/1/3 307/1/3 314/1/3
f 316/1/3 309/1/3 308/1/3
f 316/4/3 308/4/3 315/4/3
f 317/4/3 310/4/3 309/4/3
f 317/1/3 309/1/3 316/1/3
f 318/1/3 311/1/3 310/1/3
f 318/4/3 310/4/3 317/4/3
f 319/4/3 312/4/3 311/4/3
f 319/1/3 311/1/3 318/1/3
f 320/4/3 312/4/3 319/4/3
f 325/2/3 322/2/3 321/2/3
f 326/2/3 322/2/3 325/2/3
f 327/2/3 324/2/3 323/2/3
f 328/2/3 324/2/3 327/2/3
f 333/2/3 330/2/3 329/2/3
f 334/2/3 330/2/3 333/2/3
f 335/2/3 330/2/3 334/2/3
f 336/2/3 330/2/3 335/2/3
f 337/2/3 332/2/3 331/2/3
f 338/2/3 332/2/3 337/2/3
f 339/2/3 332/2/3 338/2/3
f 347/2/3 341/2/3 340/2/3
f 347/2/3 342/2/3 341/2/3
f 347/2/3 343/2/3 342/2/3
f 348/2/3 343/2/3 347/2/3
f 349/2/3 346/2/3 345/2/3
f 349/2/3 345/2/3 344/2/3
f 350/2/3 346/2/3 349/2/3
f 355/2/3 352/2/3 351/2/3
f 356/2/3 352/2/3 355/2/3
f 357/2/3 354/2/3 353/2/3
f 358/2/3 354/2/3 357/2/3
f 363/2/3 360/2/3 359/2/3
f 364/2/3 360/2/3 363/2/3
f 365/2/3 362/2/3 361/2/3
f 366/2/3 362/2/3 365/2/3
f 371/2/3 368/2/3 367/2/3
f 372/2/3 368/2/3 371/2/3
f 373/2/3 368/2/3 372/2/3
f 374/2/3 368/2/3 373/2/3
f 375/2/3 370/2/3 369/2/3
f 376/2/3 370/2/3 375/2/3
f 377/2/3 370/2/3 376/2/3
f 385/2/3 379/2/3 378/2/3
f 385/2/3 380/2/3 379/2/3
f 385/2/3 381/2/3 380/2/3
f 386/2/3 381/2/3 385/2/3
f 387/2/3 384/2/3 383/2/3
f 387/2/3 383/2/3 382/2/3
f 388/2/3 384/2/3 387/2/3
f 393/2/3 390/2/3 389/2/3
f 394/2/3 390/2/3 393/2/3
f 395/2/3 392/2/3 391/2/3
f 396/2/3 392/2/3 395/2/3
f 397/2/4 398/2/4 401/2/4
f 401/2/4 398/2/4 402/2/4
f 399/2/4 400/2/4 403/2/4
f 403/2/4 400/2/4 404/2/4
f 405/2/4 406/2/4 409/2/4
f 409/2/4 406/2/4 410/2/4
f 410/2/4 406/2/4 411/2/4
f 411/2/4 406/2/4 412/2/4
f 407/2/4 408/2/4 413/2/4
f 413/2/4 408/2/4 414/2/4
f 414/2/4 408/2/4 415/2/4
f 416/2/4 417/2/4 423/2/4
f 417/2/4 418/2/4 423/2/4
f 418/2/4 419/2/4 423/2/4
f 423/2/4 419/2/4 424/2/4
f 421/2/4 422/2/4 425/2/4
f 420/2/4 421/2/4 425/2/4
f 425/2/4 422/2/4 426/2/4
f 427/2/4 428/2/4 431/2/4
f 431/2/4 428/2/4 432/2/4
f 429/2/4 430/2/4 433/2/4
f 433/2/4 430/2/4 434/2/4
f 435/2/4 436/2/4 439/2/4
f 439/2/4 436/2/4 440/2/4
f 437/2/4 438/2/4 441/2/4
f 441/2/4 438/2/4 442/2/4
f 443/2/4 444/2/4 447/2/4
f 447/2/4 444/2/4 448/2/4
f 448/2/4 444/2/4 449/2/4
f 449/2/4 444/2/4 450/2/4
f 445/2/4 446/2/4 451/2/4
f 451/2/4 446/2/4 452/2/4
f 452/2/4 446/2/4 453/2/4
f 454/2/4 455/2/4 461/2/4
f 455/2/4 456/2/4 461/2/4
f 456/2/4 457/2/4 461/2/4
f 461/2/4 457/2/4 462/2/4
f 459/2/4 460/2/4 463/2/4
f 458/2/4 459/2/4 463/2/4
f 463/2/4 460/2/4 464/2/4
f 465/2/4 466/2/4 469/2/4
f 469/2/4 466/2/4 470/2/4
f 467/2/4 468/2/4 471/2/4
f 471/2/4 468/2/4 472/2/4
f 473/1/4 474/1/4 480/1/4
f 474/4/4 475/4/4 481/4/4
f 480/1/4 474/1/4 481/1/4
f 475/1/4 476/1/4 482/1/4
f 481/4/4 475/4/4 482/4/4
f 476/4/4 477/4/4 483/4/4
f 482/1/4 476/1/4 483/1/4
f 477/1/4 478/1/4 484/1/4
f 483/4/4 477/4/4 484/4/4
f 478/4/4 479/4/4 485/4/4
f 484/1/4 478/1/4 485/1/4
f 485/4/4 479/4/4 486/4/4
f 489/4/5 488/4/5 487/4/5
f 490/4/5 488/4/5 489/4/5
f 491/1/5 490/1/5 489/1/5
f 492/1/5 490/1/5 491/1/5
f 497/2/5 494/2/5 493/2/5
f 497/2/5 496/2/5 495/2/5
f 497/2/5 495/2/5 494/2/5
f 498/2/5 496/2/5 497/2/5
f 499/2/5 496/2/5 498/2/5
f 500/2/5 496/2/5 499/2/5
f 505/2/5 502/2/5 501/2/5
f 505/2/5 504/2/5 503/2/5
f 505/2/5 503/2/5 502/2/5
f 506/2/5 504/2/5 505/2/5
f 507/2/5 504/2/5 506/2/5
f 508/2/5 504/2/5 507/2/5
f 511/2/5 510/2/5 509/2/5
f 512/2/5 510/2/5 511/2/5
f 513/2/5 512/2/5 511/2/5
f 514/2/5 512/2/5 513/2/5
f 515/2/5 514/2/5 513/2/5
f 516/2/5 514/2/5 515/2/5
f 519/2/5 518/2/5 517/2/5
f 520/2/5 518/2/5 519/2/5
f 521/2/5 520/2/5 519/2/5
f 522/2/5 520/2/5 521/2/5
f 523/2/5 522/2/5 521/2/5
f 524/2/5 522/2/5 523/2/5
f 529/2/5 526/2/5 525/2/5
f 529/2/5 528/2/5 527/2/5
f 529/2/5 527/2/5 526/2/5
f 530/2/5 528/2/5 529/2/5
f 531/2/5 528/2/5 530/2/5
f 532/2/5 528/2/5 531/2/5
f 537/2/5 534/2/5 533/2/5
f 537/2/5 536/2/5 535/2/5
f 537/2/5 535/2/5 534/2/5
f 538/2/5 536/2/5 537/2/5
f 539/2/5 536/2/5 538/2/5
f 540/2/5 536/2/5 539/2/5
f 541/4/6 542/4/6 543/4/6
f 543/4/6 542/4/6 544/4/6
f 545/2/6 546/2/6 547/2/6
f 547/2/6 546/2/6 548/2/6
f 549/4/6 550/4/6 551/4/6
f 551/4/6 550/4/6 552/4/6
f 553/2/6 554/2/6 555/2/6
f 555/2/6 554/2/6 556/2/6
f 557/4/6 558/4/6 559/4/6
f 559/4/6 558/4/6 560/4/6
f 561/2/6 562/2/6 563/2/6
f 563/2/6 562/2/6 564/2/6
f 563/2/6 564/2/6 565/2/6
f 565/2/6 564/2/6 566/2/6
f 565/2/6 566/2/6 567/2/6
f 567/2/6 566/2/6 568/2/6
f 569/2/6 570/2/6 571/2/6
f 571/2/6 570/2/6 572/2/6
f 571/2/6 572/2/6 573/2/6
f 573/2/6 572/2/6 574/2/6
f 573/2/6 574/2/6 575/2/6
f 575/2/6 574/2/6 576/2/6
f 577/2/6 578/2/6 581/2/6
f 579/2/6 580/2/6 581/2/6
f 578/2/6 579/2/6 581/2/6
f 581/2/6 580/2/6 582/2/6
f 582/2/6 580/2/6 583/2/6
f 583/2/6 580/2/6 584/2/6
f 585/2/6 586/2/6 589/2/6
f 587/2/6 588/2/6 589/2/6
f 586/2/6 587/2/6 589/2/6
f 589/2/6 588/2/6 590/2/6
f 590/2/6 588/2/6 591/2/6
f 591/2/6 588/2/6 592/2/6
f 593/2/6 594/2/6 595/2/6
f 595/2/6 594/2/6 596/2/6
f 595/2/6 596/2/6 597/2/6
f 597/2/6 596/2/6 598/2/6
f 597/2/6 598/2/6 599/2/6
f 599/2/6 598/2/6 600/2/6
f 601/2/6 602/2/6 603/2/6
f 603/2/6 602/2/6 604/2/6
f 603/2/6 604/2/6 605/2/6
f 605/2/6 604/2/6 606/2/6
f 605/2/6 606/2/6 607/2/6
f 607/2/6 606/2/6 608/2/6
f 609/2/6 610/2/6 613/2/6
f 613/2/6 610/2/6 614/2/6
f 611/2/6 612/2/6 615/2/6
f 615/2/6 612/2/6 616/2/6
f 617/2/6 618/2/6 621/2/6
f 621/2/6 618/2/6 622/2/6
f 619/2/6 620/2/6 623/2/6
f 623/2/6 620/2/6 624/2/6
