# MagicaVoxel @ Ephtracy

# group
o 

# material
mtllib Candelier.mtl
usemtl palette

# normals
vn -1 0 0
vn 1 0 0
vn 0 0 1
vn 0 0 -1
vn 0 -1 0
vn 0 1 0

# texcoords
vt 0.970703 0.5
vt 0.974609 0.5
vt 0.978516 0.5
vt 0.982422 0.5
vt 0.986328 0.5

# verts
v -1.1 0 0.1
v -1.1 0 -0.2
v -1.1 0.1 0.1
v -1.1 0.1 -0.2
v -1.1 0.6 0
v -1.1 0.6 -0.1
v -1.1 0.7 0
v -1.1 0.7 -0.1
v -1.1 0.8 0
v -1.1 0.8 -0.1
v -1.1 1.1 0
v -1.1 1.1 -0.1
v -1.1 1.2 0
v -1.1 1.2 -0.1
v -1 0 0.2
v -1 0 0.1
v -1 0 -0.2
v -1 0 -0.3
v -1 0.1 0.2
v -1 0.1 0.1
v -1 0.1 -0.2
v -1 0.1 -0.3
v -1 0.2 0.1
v -1 0.2 -0.2
v -0.9 0.2 0
v -0.9 0.2 -0.1
v -0.9 0.6 0
v -0.9 0.6 -0.1
v -0.9 0.7 0
v -0.9 0.7 -0.1
v -0.9 0.8 0
v -0.9 0.8 -0.1
v -0.9 0.9 0
v -0.9 0.9 -0.1
v -0.9 1.2 0
v -0.9 1.2 -0.1
v -0.9 1.3 0
v -0.9 1.3 -0.1
v -0.7 0.7 0
v -0.7 0.7 -0.1
v -0.7 0.8 0
v -0.7 0.8 -0.1
v -0.7 1.1 0
v -0.7 1.1 -0.1
v -0.7 1.2 0
v -0.7 1.2 -0.1
v -1 0.7 0
v -1 0.7 -0.1
v -1 0.8 0
v -1 0.8 -0.1
v -1 1.1 0
v -1 1.1 -0.1
v -1 1.2 0
v -1 1.2 -0.1
v -0.8 0.2 0
v -0.8 0.2 -0.1
v -0.8 0.6 0
v -0.8 0.6 -0.1
v -0.8 0.7 0
v -0.8 0.7 -0.1
v -0.8 0.8 0
v -0.8 0.8 -0.1
v -0.8 0.9 0
v -0.8 0.9 -0.1
v -0.8 1.2 0
v -0.8 1.2 -0.1
v -0.8 1.3 0
v -0.8 1.3 -0.1
v -0.7 0 0.2
v -0.7 0 0.1
v -0.7 0 -0.2
v -0.7 0 -0.3
v -0.7 0.1 0.2
v -0.7 0.1 0.1
v -0.7 0.1 -0.2
v -0.7 0.1 -0.3
v -0.7 0.2 0.1
v -0.7 0.2 -0.2
v -0.6 0 0.1
v -0.6 0 -0.2
v -0.6 0.1 0.1
v -0.6 0.1 -0.2
v -0.6 0.6 0
v -0.6 0.6 -0.1
v -0.6 0.7 0
v -0.6 0.7 -0.1
v -0.6 0.8 0
v -0.6 0.8 -0.1
v -0.6 1.1 0
v -0.6 1.1 -0.1
v -0.6 1.2 0
v -0.6 1.2 -0.1
v -1 0 0.2
v -1 0.1 0.2
v -0.7 0 0.2
v -0.7 0.1 0.2
v -1.1 0 0.1
v -1.1 0.1 0.1
v -1 0 0.1
v -1 0.1 0.1
v -1 0.2 0.1
v -0.7 0 0.1
v -0.7 0.1 0.1
v -0.7 0.2 0.1
v -0.6 0 0.1
v -0.6 0.1 0.1
v -1.1 0.6 0
v -1.1 0.7 0
v -1.1 0.8 0
v -1.1 1.1 0
v -1.1 1.2 0
v -1 0.7 0
v -1 0.8 0
v -1 1.1 0
v -1 1.2 0
v -0.9 0.2 0
v -0.9 0.6 0
v -0.9 0.7 0
v -0.9 0.8 0
v -0.9 0.9 0
v -0.9 1.2 0
v -0.9 1.3 0
v -0.8 0.2 0
v -0.8 0.6 0
v -0.8 0.7 0
v -0.8 0.8 0
v -0.8 0.9 0
v -0.8 1.2 0
v -0.8 1.3 0
v -0.7 0.7 0
v -0.7 0.8 0
v -0.7 1.1 0
v -0.7 1.2 0
v -0.6 0.6 0
v -0.6 0.7 0
v -0.6 0.8 0
v -0.6 1.1 0
v -0.6 1.2 0
v -1.1 0.6 -0.1
v -1.1 0.7 -0.1
v -1.1 0.8 -0.1
v -1.1 1.1 -0.1
v -1.1 1.2 -0.1
v -1 0.7 -0.1
v -1 0.8 -0.1
v -1 1.1 -0.1
v -1 1.2 -0.1
v -0.9 0.2 -0.1
v -0.9 0.6 -0.1
v -0.9 0.7 -0.1
v -0.9 0.8 -0.1
v -0.9 0.9 -0.1
v -0.9 1.2 -0.1
v -0.9 1.3 -0.1
v -0.8 0.2 -0.1
v -0.8 0.6 -0.1
v -0.8 0.7 -0.1
v -0.8 0.8 -0.1
v -0.8 0.9 -0.1
v -0.8 1.2 -0.1
v -0.8 1.3 -0.1
v -0.7 0.7 -0.1
v -0.7 0.8 -0.1
v -0.7 1.1 -0.1
v -0.7 1.2 -0.1
v -0.6 0.6 -0.1
v -0.6 0.7 -0.1
v -0.6 0.8 -0.1
v -0.6 1.1 -0.1
v -0.6 1.2 -0.1
v -1.1 0 -0.2
v -1.1 0.1 -0.2
v -1 0 -0.2
v -1 0.1 -0.2
v -1 0.2 -0.2
v -0.7 0 -0.2
v -0.7 0.1 -0.2
v -0.7 0.2 -0.2
v -0.6 0 -0.2
v -0.6 0.1 -0.2
v -1 0 -0.3
v -1 0.1 -0.3
v -0.7 0 -0.3
v -0.7 0.1 -0.3
v -1 0 0.2
v -0.7 0 0.2
v -1.1 0 0.1
v -1 0 0.1
v -0.7 0 0.1
v -0.6 0 0.1
v -1.1 0 -0.2
v -1 0 -0.2
v -0.7 0 -0.2
v -0.6 0 -0.2
v -1 0 -0.3
v -0.7 0 -0.3
v -1.1 0.6 0
v -0.9 0.6 0
v -0.8 0.6 0
v -0.6 0.6 0
v -1.1 0.6 -0.1
v -0.9 0.6 -0.1
v -0.8 0.6 -0.1
v -0.6 0.6 -0.1
v -1 0.1 0.2
v -0.7 0.1 0.2
v -1.1 0.1 0.1
v -1 0.1 0.1
v -0.7 0.1 0.1
v -0.6 0.1 0.1
v -1.1 0.1 -0.2
v -1 0.1 -0.2
v -0.7 0.1 -0.2
v -0.6 0.1 -0.2
v -1 0.1 -0.3
v -0.7 0.1 -0.3
v -1 0.2 0.1
v -0.7 0.2 0.1
v -0.9 0.2 0
v -0.8 0.2 0
v -0.9 0.2 -0.1
v -0.8 0.2 -0.1
v -1 0.2 -0.2
v -0.7 0.2 -0.2
v -1 0.7 0
v -0.9 0.7 0
v -0.8 0.7 0
v -0.7 0.7 0
v -1 0.7 -0.1
v -0.9 0.7 -0.1
v -0.8 0.7 -0.1
v -0.7 0.7 -0.1
v -1.1 1.2 0
v -1 1.2 0
v -0.7 1.2 0
v -0.6 1.2 0
v -1.1 1.2 -0.1
v -1 1.2 -0.1
v -0.7 1.2 -0.1
v -0.6 1.2 -0.1
v -0.9 1.3 0
v -0.8 1.3 0
v -0.9 1.3 -0.1
v -0.8 1.3 -0.1

# faces
f 3/3/1 2/3/1 1/3/1
f 4/3/1 2/3/1 3/3/1
f 7/4/1 6/4/1 5/4/1
f 8/4/1 6/4/1 7/4/1
f 9/2/1 8/2/1 7/2/1
f 10/2/1 8/2/1 9/2/1
f 11/1/1 10/1/1 9/1/1
f 12/1/1 10/1/1 11/1/1
f 13/5/1 12/5/1 11/5/1
f 14/5/1 12/5/1 13/5/1
f 19/3/1 16/3/1 15/3/1
f 20/3/1 16/3/1 19/3/1
f 21/3/1 18/3/1 17/3/1
f 22/3/1 18/3/1 21/3/1
f 23/3/1 21/3/1 20/3/1
f 24/3/1 21/3/1 23/3/1
f 27/4/1 26/4/1 25/4/1
f 28/4/1 26/4/1 27/4/1
f 31/4/1 30/4/1 29/4/1
f 32/4/1 30/4/1 31/4/1
f 33/2/1 32/2/1 31/2/1
f 34/2/1 32/2/1 33/2/1
f 35/1/1 34/1/1 33/1/1
f 36/1/1 34/1/1 35/1/1
f 37/5/1 36/5/1 35/5/1
f 38/5/1 36/5/1 37/5/1
f 41/2/1 40/2/1 39/2/1
f 42/2/1 40/2/1 41/2/1
f 43/1/1 42/1/1 41/1/1
f 44/1/1 42/1/1 43/1/1
f 45/5/1 44/5/1 43/5/1
f 46/5/1 44/5/1 45/5/1
f 47/2/2 48/2/2 49/2/2
f 49/2/2 48/2/2 50/2/2
f 49/1/2 50/1/2 51/1/2
f 51/1/2 50/1/2 52/1/2
f 51/5/2 52/5/2 53/5/2
f 53/5/2 52/5/2 54/5/2
f 55/4/2 56/4/2 57/4/2
f 57/4/2 56/4/2 58/4/2
f 59/4/2 60/4/2 61/4/2
f 61/4/2 60/4/2 62/4/2
f 61/2/2 62/2/2 63/2/2
f 63/2/2 62/2/2 64/2/2
f 63/1/2 64/1/2 65/1/2
f 65/1/2 64/1/2 66/1/2
f 65/5/2 66/5/2 67/5/2
f 67/5/2 66/5/2 68/5/2
f 69/3/2 70/3/2 73/3/2
f 73/3/2 70/3/2 74/3/2
f 71/3/2 72/3/2 75/3/2
f 75/3/2 72/3/2 76/3/2
f 74/3/2 75/3/2 77/3/2
f 77/3/2 75/3/2 78/3/2
f 79/3/2 80/3/2 81/3/2
f 81/3/2 80/3/2 82/3/2
f 83/4/2 84/4/2 85/4/2
f 85/4/2 84/4/2 86/4/2
f 85/2/2 86/2/2 87/2/2
f 87/2/2 86/2/2 88/2/2
f 87/1/2 88/1/2 89/1/2
f 89/1/2 88/1/2 90/1/2
f 89/5/2 90/5/2 91/5/2
f 91/5/2 90/5/2 92/5/2
f 95/3/3 94/3/3 93/3/3
f 96/3/3 94/3/3 95/3/3
f 99/3/3 98/3/3 97/3/3
f 100/3/3 98/3/3 99/3/3
f 103/3/3 101/3/3 100/3/3
f 104/3/3 101/3/3 103/3/3
f 105/3/3 103/3/3 102/3/3
f 106/3/3 103/3/3 105/3/3
f 112/4/3 108/4/3 107/4/3
f 112/2/3 109/2/3 108/2/3
f 113/1/3 110/1/3 109/1/3
f 113/2/3 109/2/3 112/2/3
f 114/5/3 111/5/3 110/5/3
f 114/1/3 110/1/3 113/1/3
f 115/5/3 111/5/3 114/5/3
f 117/4/3 112/4/3 107/4/3
f 118/4/3 112/4/3 117/4/3
f 123/4/3 117/4/3 116/4/3
f 123/4/3 118/4/3 117/4/3
f 123/4/3 119/4/3 118/4/3
f 124/4/3 119/4/3 123/4/3
f 125/4/3 119/4/3 124/4/3
f 126/2/3 120/2/3 119/2/3
f 126/4/3 119/4/3 125/4/3
f 127/1/3 121/1/3 120/1/3
f 127/2/3 120/2/3 126/2/3
f 128/5/3 122/5/3 121/5/3
f 128/1/3 121/1/3 127/1/3
f 129/5/3 122/5/3 128/5/3
f 130/4/3 125/4/3 124/4/3
f 134/4/3 130/4/3 124/4/3
f 135/2/3 131/2/3 130/2/3
f 135/4/3 130/4/3 134/4/3
f 136/1/3 132/1/3 131/1/3
f 136/2/3 131/2/3 135/2/3
f 137/5/3 133/5/3 132/5/3
f 137/1/3 132/1/3 136/1/3
f 138/5/3 133/5/3 137/5/3
f 139/4/4 140/4/4 144/4/4
f 140/2/4 141/2/4 144/2/4
f 141/1/4 142/1/4 145/1/4
f 144/2/4 141/2/4 145/2/4
f 142/5/4 143/5/4 146/5/4
f 145/1/4 142/1/4 146/1/4
f 146/5/4 143/5/4 147/5/4
f 139/4/4 144/4/4 149/4/4
f 149/4/4 144/4/4 150/4/4
f 148/4/4 149/4/4 155/4/4
f 149/4/4 150/4/4 155/4/4
f 150/4/4 151/4/4 155/4/4
f 155/4/4 151/4/4 156/4/4
f 156/4/4 151/4/4 157/4/4
f 151/2/4 152/2/4 158/2/4
f 157/4/4 151/4/4 158/4/4
f 152/1/4 153/1/4 159/1/4
f 158/2/4 152/2/4 159/2/4
f 153/5/4 154/5/4 160/5/4
f 159/1/4 153/1/4 160/1/4
f 160/5/4 154/5/4 161/5/4
f 156/4/4 157/4/4 162/4/4
f 156/4/4 162/4/4 166/4/4
f 162/2/4 163/2/4 167/2/4
f 166/4/4 162/4/4 167/4/4
f 163/1/4 164/1/4 168/1/4
f 167/2/4 163/2/4 168/2/4
f 164/5/4 165/5/4 169/5/4
f 168/1/4 164/1/4 169/1/4
f 169/5/4 165/5/4 170/5/4
f 171/3/4 172/3/4 173/3/4
f 173/3/4 172/3/4 174/3/4
f 174/3/4 175/3/4 177/3/4
f 177/3/4 175/3/4 178/3/4
f 176/3/4 177/3/4 179/3/4
f 179/3/4 177/3/4 180/3/4
f 181/3/4 182/3/4 183/3/4
f 183/3/4 182/3/4 184/3/4
f 188/3/5 186/3/5 185/3/5
f 189/3/5 186/3/5 188/3/5
f 191/3/5 188/3/5 187/3/5
f 191/3/5 190/3/5 189/3/5
f 191/3/5 189/3/5 188/3/5
f 192/3/5 190/3/5 191/3/5
f 193/3/5 190/3/5 192/3/5
f 194/3/5 190/3/5 193/3/5
f 195/3/5 193/3/5 192/3/5
f 196/3/5 193/3/5 195/3/5
f 201/4/5 198/4/5 197/4/5
f 202/4/5 198/4/5 201/4/5
f 203/4/5 200/4/5 199/4/5
f 204/4/5 200/4/5 203/4/5
f 205/3/6 206/3/6 208/3/6
f 208/3/6 206/3/6 209/3/6
f 207/3/6 208/3/6 211/3/6
f 211/3/6 208/3/6 212/3/6
f 209/3/6 210/3/6 213/3/6
f 213/3/6 210/3/6 214/3/6
f 212/3/6 213/3/6 215/3/6
f 215/3/6 213/3/6 216/3/6
f 217/3/6 218/3/6 219/3/6
f 219/3/6 218/3/6 220/3/6
f 217/3/6 219/3/6 221/3/6
f 220/3/6 218/3/6 222/3/6
f 217/3/6 221/3/6 223/3/6
f 221/3/6 222/3/6 223/3/6
f 222/3/6 218/3/6 224/3/6
f 223/3/6 222/3/6 224/3/6
f 225/4/6 226/4/6 229/4/6
f 229/4/6 226/4/6 230/4/6
f 227/4/6 228/4/6 231/4/6
f 231/4/6 228/4/6 232/4/6
f 233/5/6 234/5/6 237/5/6
f 237/5/6 234/5/6 238/5/6
f 235/5/6 236/5/6 239/5/6
f 239/5/6 236/5/6 240/5/6
f 241/5/6 242/5/6 243/5/6
f 243/5/6 242/5/6 244/5/6
